<?xml version="1.0" encoding="UTF-8" standalone="no"?>
<!-- Created with Inkscape (http://www.inkscape.org/) -->

<svg
   xmlns:dc="http://purl.org/dc/elements/1.1/"
   xmlns:cc="http://creativecommons.org/ns#"
   xmlns:rdf="http://www.w3.org/1999/02/22-rdf-syntax-ns#"
   xmlns:svg="http://www.w3.org/2000/svg"
   xmlns="http://www.w3.org/2000/svg"
   xmlns:sodipodi="http://sodipodi.sourceforge.net/DTD/sodipodi-0.dtd"
   xmlns:inkscape="http://www.inkscape.org/namespaces/inkscape"
   width="2169.594mm"
   height="356mm"
   viewBox="0 0 2169.594 356"
   version="1.1"
   id="svg839"
   inkscape:version="0.92.3 (2405546, 2018-03-11)"
   sodipodi:docname="drawing.svg">
  <defs
     id="defs833" />
  <sodipodi:namedview
     id="base"
     pagecolor="#ffffff"
     bordercolor="#666666"
     borderopacity="1.0"
     inkscape:pageopacity="0.0"
     inkscape:pageshadow="2"
     inkscape:zoom="0.061871843"
     inkscape:cx="2172.9408"
     inkscape:cy="349.07569"
     inkscape:document-units="mm"
     inkscape:current-layer="layer1"
     showgrid="false"
     fit-margin-top="0"
     fit-margin-left="0"
     fit-margin-right="0"
     fit-margin-bottom="0"
     inkscape:window-width="1920"
     inkscape:window-height="1013"
     inkscape:window-x="-9"
     inkscape:window-y="-9"
     inkscape:window-maximized="1" />
  <metadata
     id="metadata836">
    <rdf:RDF>
      <cc:Work
         rdf:about="">
        <dc:format>image/svg+xml</dc:format>
        <dc:type
           rdf:resource="http://purl.org/dc/dcmitype/StillImage" />
        <dc:title></dc:title>
      </cc:Work>
    </rdf:RDF>
  </metadata>
  <g
     inkscape:label="Layer 1"
     inkscape:groupmode="layer"
     id="layer1"
     transform="translate(802.00908,93.375963)">
    <g
       aria-label="The Antimouse"
       transform="matrix(9.5252285,0,0,12.407898,-1179.6695,-1008.2888)"
       style="font-style:normal;font-variant:normal;font-weight:600;font-stretch:semi-condensed;font-size:40px;line-height:1.25;font-family:Bahnschrift;-inkscape-font-specification:'Bahnschrift, Semi-Bold Semi-Condensed';font-variant-ligatures:normal;font-variant-caps:normal;font-variant-numeric:normal;font-feature-settings:normal;text-align:start;letter-spacing:0px;word-spacing:0px;writing-mode:lr-tb;text-anchor:start;fill:#fed136;fill-opacity:1;stroke:none"
       id="flowRoot1384">
      <path
         d="m 46.035156,76.080078 h 4.433594 v 26.054692 h -4.433594 z m -6.386719,-2.34375 H 56.875 v 4.277344 H 39.648437 Z"
         id="path1392"
         inkscape:connector-curvature="0" />
      <path
         d="m 59.042969,73.736328 h 4.472656 V 102.13477 H 59.042969 Z M 69.21875,88.912109 q 0,-1.542968 -0.742188,-2.34375 -0.742187,-0.820312 -2.148437,-0.820312 -1.367188,0 -2.089844,0.78125 -0.722656,0.761719 -0.722656,2.246094 L 63.125,85.337891 q 0.761719,-1.835938 2.050781,-2.8125 1.289063,-0.996094 2.988281,-0.996094 2.636719,0 4.082032,1.777344 1.445312,1.757812 1.445312,5.019531 V 102.13477 H 69.21875 Z"
         id="path1394"
         inkscape:connector-curvature="0" />
      <path
         d="m 85.78125,102.42773 q -2.460938,0 -4.179688,-0.89843 -1.699218,-0.91797 -2.617187,-2.656253 -0.898438,-1.738281 -0.898438,-4.238281 v -4.941407 q 0,-2.578125 0.878907,-4.394531 0.878906,-1.835937 2.539062,-2.792969 1.660156,-0.957031 4.023438,-0.957031 2.285156,0 3.886718,1.015625 1.621094,1.015625 2.460938,2.988281 0.859375,1.972657 0.859375,4.707032 v 3.476562 H 81.289062 v -3.378906 h 7.226563 l 0.01953,-1.269531 q -0.01953,-1.640625 -0.839844,-2.597657 -0.800781,-0.957031 -2.167968,-0.957031 -1.542969,0 -2.382813,1.054688 -0.839844,1.035156 -0.839844,2.890625 v 5.273437 q 0,1.738281 0.898438,2.675781 0.898437,0.9375 2.519531,0.9375 1.09375,0 1.816406,-0.527343 0.742188,-0.546875 1.09375,-1.582032 v 0 L 92.5,97.623047 v 0 q -0.566406,2.402343 -2.285156,3.613283 -1.699219,1.1914 -4.433594,1.1914 z"
         id="path1396"
         inkscape:connector-curvature="0" />
      <path
         d="m 113.26172,73.736328 h 3.39844 l 8.67187,28.398442 H 120.625 l -5.66406,-20.859379 -5.66406,20.859379 h -4.70704 z m -3.94531,18.828125 h 11.5039 v 4.21875 h -11.5039 z"
         id="path1398"
         inkscape:connector-curvature="0" />
      <path
         d="m 128.33984,81.861328 h 4.49219 v 20.273442 h -4.49219 z m 10.17578,7.03125 q 0,-1.542969 -0.74218,-2.34375 -0.74219,-0.820312 -2.14844,-0.820312 -1.36719,0 -2.08984,0.78125 -0.70313,0.78125 -0.70313,2.265625 l -0.41016,-3.398438 q 0.76172,-1.894531 2.05079,-2.871094 1.28906,-0.976562 2.98828,-0.976562 2.63672,0 4.08203,1.777344 1.44531,1.757812 1.44531,5.019531 v 13.808598 h -4.47266 z"
         id="path1400"
         inkscape:connector-curvature="0" />
      <path
         d="m 153.30078,102.23242 q -2.57812,0 -3.78906,-1.34765 -1.21094,-1.347661 -1.21094,-4.023442 V 75.962891 h 4.47266 v 20.390625 q 0,0.761718 0.3125,1.171875 0.33203,0.410156 0.9375,0.410156 h 1.54297 v 4.296873 z m -6.99219,-20.371092 h 9.25782 v 4.023438 h -9.25782 z"
         id="path1402"
         inkscape:connector-curvature="0" />
      <path
         d="m 159.51172,73.814453 h 4.43359 v 4.433594 h -4.43359 z m 0,8.046875 h 4.43359 v 20.273442 h -4.43359 z"
         id="path1404"
         inkscape:connector-curvature="0" />
      <path
         d="m 188.96484,89.029297 q 0,-1.621094 -0.74218,-2.460938 -0.74219,-0.839843 -2.16797,-0.839843 -1.34766,0 -2.07032,0.839843 -0.70312,0.820313 -0.70312,2.402344 l -0.66406,-3.476562 q 0.80078,-1.914063 2.16797,-2.929688 1.38671,-1.035156 3.08593,-1.035156 1.77735,0 3.02735,0.800781 1.25,0.800781 1.89453,2.363281 0.66406,1.5625 0.66406,3.769532 v 13.671879 h -4.49219 z m -20.3125,-7.167969 h 4.49219 v 20.273442 h -4.49219 z m 10.15625,7.167969 q 0,-1.621094 -0.72265,-2.460938 -0.72266,-0.839843 -2.12891,-0.839843 -1.36719,0 -2.08984,0.78125 -0.72266,0.78125 -0.72266,2.265625 l -0.41016,-3.4375 q 0.78125,-1.855469 2.08985,-2.832032 1.30859,-0.976562 3.00781,-0.976562 1.71875,0 2.94922,0.800781 1.23047,0.78125 1.85547,2.304688 0.64453,1.523437 0.64453,3.710937 v 13.789067 h -4.47266 z"
         id="path1406"
         inkscape:connector-curvature="0" />
      <path
         d="m 205.09766,102.42773 q -2.28516,0 -3.90625,-0.83984 -1.6211,-0.85937 -2.48047,-2.480468 -0.85938,-1.640625 -0.85938,-3.925781 v -6.484375 q 0,-2.265625 0.85938,-3.867188 0.85937,-1.621094 2.48047,-2.460937 1.62109,-0.839844 3.90625,-0.839844 2.28515,0 3.90625,0.839844 1.64062,0.839843 2.48046,2.460937 0.85938,1.601563 0.85938,3.867188 v 6.542968 q 0,2.265625 -0.85938,3.886719 -0.83984,1.601567 -2.48046,2.460937 -1.6211,0.83984 -3.90625,0.83984 z m 0,-4.218746 q 1.34765,0 2.07031,-0.800781 0.72265,-0.820312 0.72265,-2.324219 v -6.25 q 0,-1.464843 -0.72265,-2.265625 -0.72266,-0.800781 -2.07031,-0.800781 -1.32813,0 -2.07032,0.800781 -0.72265,0.800782 -0.72265,2.265625 v 6.25 q 0,1.503907 0.72265,2.324219 0.72266,0.800781 2.07032,0.800781 z"
         id="path1408"
         inkscape:connector-curvature="0" />
      <path
         d="m 226.34766,81.861328 h 4.43359 v 20.273442 h -4.43359 z m -5.50782,13.632813 q 0,1.347656 0.70313,2.089843 0.72265,0.722657 2.07031,0.722657 1.32813,0 2.03125,-0.703125 0.70313,-0.703125 0.70313,-2.070313 l 0.27343,3.28125 q -0.54687,1.679687 -1.71875,2.656247 -1.15234,0.95703 -2.85156,0.95703 -2.73437,0 -4.19922,-1.75781 -1.46484,-1.757811 -1.46484,-5.097654 V 81.861328 h 4.45312 z"
         id="path1410"
         inkscape:connector-curvature="0" />
      <path
         d="m 241.71875,102.42773 q -2.03125,0 -3.61328,-0.54687 -1.5625,-0.54688 -2.57813,-1.66016 -1.01562,-1.113278 -1.44531,-2.675778 v 0 l 3.75,-1.835938 v 0 q 0.58594,1.308594 1.62109,2.011719 1.03516,0.683594 2.40235,0.683594 1.52344,0 2.32422,-0.585938 Q 245,97.212891 245,96.158203 q 0,-0.78125 -0.46875,-1.230469 -0.46875,-0.449218 -1.17188,-0.664062 -0.70312,-0.234375 -1.95312,-0.488281 -0.17578,-0.03906 -0.39063,-0.05859 -0.19531,-0.03906 -0.41015,-0.117188 -0.0586,0 -0.11719,-0.01953 -0.0391,-0.01953 -0.11719,-0.03906 -1.71875,-0.371094 -2.89062,-0.898438 -1.17188,-0.527344 -1.95313,-1.699219 -0.76172,-1.191406 -0.76172,-3.183593 0,-1.972657 0.82032,-3.359375 0.82031,-1.386719 2.38281,-2.109375 1.5625,-0.742188 3.76953,-0.742188 1.85547,0 3.28125,0.527344 1.44531,0.507812 2.40234,1.523437 0.95704,0.996094 1.42579,2.460938 v 0 l -3.78907,1.796875 v 0 q -0.48828,-1.113281 -1.34765,-1.699219 -0.83985,-0.585937 -1.99219,-0.585937 -1.34766,0 -2.07031,0.546875 -0.70313,0.546875 -0.70313,1.582031 0,0.722656 0.46875,1.152344 0.46875,0.429687 1.19141,0.644531 0.72265,0.195312 2.01172,0.449219 0.0586,0.01953 0.11718,0.03906 0.0586,0 0.11719,0 0.0391,0.01953 0.0977,0.03906 0.0586,0 0.0977,0 1.89454,0.371093 3.14454,0.859375 1.25,0.488281 2.10937,1.757812 0.87891,1.25 0.87891,3.457031 0,1.992188 -0.87891,3.417969 -0.87891,1.42578 -2.55859,2.16797 -1.67969,0.74218 -4.02344,0.74218 z"
         id="path1412"
         inkscape:connector-curvature="0" />
      <path
         d="m 260.46875,102.42773 q -2.46094,0 -4.17969,-0.89843 -1.69922,-0.91797 -2.61719,-2.656253 -0.89843,-1.738281 -0.89843,-4.238281 v -4.941407 q 0,-2.578125 0.8789,-4.394531 0.87891,-1.835937 2.53907,-2.792969 1.66015,-0.957031 4.02343,-0.957031 2.28516,0 3.88672,1.015625 1.6211,1.015625 2.46094,2.988281 0.85937,1.972657 0.85937,4.707032 v 3.476562 h -11.44531 v -3.378906 h 7.22656 l 0.0195,-1.269531 q -0.0195,-1.640625 -0.83985,-2.597657 -0.80078,-0.957031 -2.16797,-0.957031 -1.54297,0 -2.38281,1.054688 -0.83984,1.035156 -0.83984,2.890625 v 5.273437 q 0,1.738281 0.89843,2.675781 0.89844,0.9375 2.51954,0.9375 1.09375,0 1.8164,-0.527343 0.74219,-0.546875 1.09375,-1.582032 v 0 l 3.86719,1.367188 v 0 q -0.56641,2.402343 -2.28516,3.613283 -1.69922,1.1914 -4.43359,1.1914 z"
         id="path1414"
         inkscape:connector-curvature="0" />
    </g>
    <g
       id="g1441"
       style="font-style:normal;font-variant:normal;font-weight:600;font-stretch:semi-condensed;font-size:40px;line-height:1.25;font-family:Bahnschrift;-inkscape-font-specification:'Bahnschrift, Semi-Bold Semi-Condensed';font-variant-ligatures:normal;font-variant-caps:normal;font-variant-numeric:normal;font-feature-settings:normal;text-align:start;letter-spacing:0px;word-spacing:0px;writing-mode:lr-tb;text-anchor:start;fill:#fed136;fill-opacity:1;stroke:none"
       transform="matrix(9.5252285,0,0,12.407898,-1179.6695,-1008.2888)"
       aria-label="The Antimouse">
      <path
         inkscape:connector-curvature="0"
         id="path1417"
         d="m 46.035156,76.080078 h 4.433594 v 26.054692 h -4.433594 z m -6.386719,-2.34375 H 56.875 v 4.277344 H 39.648437 Z" />
      <path
         inkscape:connector-curvature="0"
         id="path1419"
         d="m 59.042969,73.736328 h 4.472656 V 102.13477 H 59.042969 Z M 69.21875,88.912109 q 0,-1.542968 -0.742188,-2.34375 -0.742187,-0.820312 -2.148437,-0.820312 -1.367188,0 -2.089844,0.78125 -0.722656,0.761719 -0.722656,2.246094 L 63.125,85.337891 q 0.761719,-1.835938 2.050781,-2.8125 1.289063,-0.996094 2.988281,-0.996094 2.636719,0 4.082032,1.777344 1.445312,1.757812 1.445312,5.019531 V 102.13477 H 69.21875 Z" />
      <path
         inkscape:connector-curvature="0"
         id="path1421"
         d="m 85.78125,102.42773 q -2.460938,0 -4.179688,-0.89843 -1.699218,-0.91797 -2.617187,-2.656253 -0.898438,-1.738281 -0.898438,-4.238281 v -4.941407 q 0,-2.578125 0.878907,-4.394531 0.878906,-1.835937 2.539062,-2.792969 1.660156,-0.957031 4.023438,-0.957031 2.285156,0 3.886718,1.015625 1.621094,1.015625 2.460938,2.988281 0.859375,1.972657 0.859375,4.707032 v 3.476562 H 81.289062 v -3.378906 h 7.226563 l 0.01953,-1.269531 q -0.01953,-1.640625 -0.839844,-2.597657 -0.800781,-0.957031 -2.167968,-0.957031 -1.542969,0 -2.382813,1.054688 -0.839844,1.035156 -0.839844,2.890625 v 5.273437 q 0,1.738281 0.898438,2.675781 0.898437,0.9375 2.519531,0.9375 1.09375,0 1.816406,-0.527343 0.742188,-0.546875 1.09375,-1.582032 v 0 L 92.5,97.623047 v 0 q -0.566406,2.402343 -2.285156,3.613283 -1.699219,1.1914 -4.433594,1.1914 z" />
      <path
         inkscape:connector-curvature="0"
         id="path1423"
         d="m 113.26172,73.736328 h 3.39844 l 8.67187,28.398442 H 120.625 l -5.66406,-20.859379 -5.66406,20.859379 h -4.70704 z m -3.94531,18.828125 h 11.5039 v 4.21875 h -11.5039 z" />
      <path
         inkscape:connector-curvature="0"
         id="path1425"
         d="m 128.33984,81.861328 h 4.49219 v 20.273442 h -4.49219 z m 10.17578,7.03125 q 0,-1.542969 -0.74218,-2.34375 -0.74219,-0.820312 -2.14844,-0.820312 -1.36719,0 -2.08984,0.78125 -0.70313,0.78125 -0.70313,2.265625 l -0.41016,-3.398438 q 0.76172,-1.894531 2.05079,-2.871094 1.28906,-0.976562 2.98828,-0.976562 2.63672,0 4.08203,1.777344 1.44531,1.757812 1.44531,5.019531 v 13.808598 h -4.47266 z" />
      <path
         inkscape:connector-curvature="0"
         id="path1427"
         d="m 153.30078,102.23242 q -2.57812,0 -3.78906,-1.34765 -1.21094,-1.347661 -1.21094,-4.023442 V 75.962891 h 4.47266 v 20.390625 q 0,0.761718 0.3125,1.171875 0.33203,0.410156 0.9375,0.410156 h 1.54297 v 4.296873 z m -6.99219,-20.371092 h 9.25782 v 4.023438 h -9.25782 z" />
      <path
         inkscape:connector-curvature="0"
         id="path1429"
         d="m 159.51172,73.814453 h 4.43359 v 4.433594 h -4.43359 z m 0,8.046875 h 4.43359 v 20.273442 h -4.43359 z" />
      <path
         inkscape:connector-curvature="0"
         id="path1431"
         d="m 188.96484,89.029297 q 0,-1.621094 -0.74218,-2.460938 -0.74219,-0.839843 -2.16797,-0.839843 -1.34766,0 -2.07032,0.839843 -0.70312,0.820313 -0.70312,2.402344 l -0.66406,-3.476562 q 0.80078,-1.914063 2.16797,-2.929688 1.38671,-1.035156 3.08593,-1.035156 1.77735,0 3.02735,0.800781 1.25,0.800781 1.89453,2.363281 0.66406,1.5625 0.66406,3.769532 v 13.671879 h -4.49219 z m -20.3125,-7.167969 h 4.49219 v 20.273442 h -4.49219 z m 10.15625,7.167969 q 0,-1.621094 -0.72265,-2.460938 -0.72266,-0.839843 -2.12891,-0.839843 -1.36719,0 -2.08984,0.78125 -0.72266,0.78125 -0.72266,2.265625 l -0.41016,-3.4375 q 0.78125,-1.855469 2.08985,-2.832032 1.30859,-0.976562 3.00781,-0.976562 1.71875,0 2.94922,0.800781 1.23047,0.78125 1.85547,2.304688 0.64453,1.523437 0.64453,3.710937 v 13.789067 h -4.47266 z" />
      <path
         inkscape:connector-curvature="0"
         id="path1433"
         d="m 205.09766,102.42773 q -2.28516,0 -3.90625,-0.83984 -1.6211,-0.85937 -2.48047,-2.480468 -0.85938,-1.640625 -0.85938,-3.925781 v -6.484375 q 0,-2.265625 0.85938,-3.867188 0.85937,-1.621094 2.48047,-2.460937 1.62109,-0.839844 3.90625,-0.839844 2.28515,0 3.90625,0.839844 1.64062,0.839843 2.48046,2.460937 0.85938,1.601563 0.85938,3.867188 v 6.542968 q 0,2.265625 -0.85938,3.886719 -0.83984,1.601567 -2.48046,2.460937 -1.6211,0.83984 -3.90625,0.83984 z m 0,-4.218746 q 1.34765,0 2.07031,-0.800781 0.72265,-0.820312 0.72265,-2.324219 v -6.25 q 0,-1.464843 -0.72265,-2.265625 -0.72266,-0.800781 -2.07031,-0.800781 -1.32813,0 -2.07032,0.800781 -0.72265,0.800782 -0.72265,2.265625 v 6.25 q 0,1.503907 0.72265,2.324219 0.72266,0.800781 2.07032,0.800781 z" />
      <path
         inkscape:connector-curvature="0"
         id="path1435"
         d="m 226.34766,81.861328 h 4.43359 v 20.273442 h -4.43359 z m -5.50782,13.632813 q 0,1.347656 0.70313,2.089843 0.72265,0.722657 2.07031,0.722657 1.32813,0 2.03125,-0.703125 0.70313,-0.703125 0.70313,-2.070313 l 0.27343,3.28125 q -0.54687,1.679687 -1.71875,2.656247 -1.15234,0.95703 -2.85156,0.95703 -2.73437,0 -4.19922,-1.75781 -1.46484,-1.757811 -1.46484,-5.097654 V 81.861328 h 4.45312 z" />
      <path
         inkscape:connector-curvature="0"
         id="path1437"
         d="m 241.71875,102.42773 q -2.03125,0 -3.61328,-0.54687 -1.5625,-0.54688 -2.57813,-1.66016 -1.01562,-1.113278 -1.44531,-2.675778 v 0 l 3.75,-1.835938 v 0 q 0.58594,1.308594 1.62109,2.011719 1.03516,0.683594 2.40235,0.683594 1.52344,0 2.32422,-0.585938 Q 245,97.212891 245,96.158203 q 0,-0.78125 -0.46875,-1.230469 -0.46875,-0.449218 -1.17188,-0.664062 -0.70312,-0.234375 -1.95312,-0.488281 -0.17578,-0.03906 -0.39063,-0.05859 -0.19531,-0.03906 -0.41015,-0.117188 -0.0586,0 -0.11719,-0.01953 -0.0391,-0.01953 -0.11719,-0.03906 -1.71875,-0.371094 -2.89062,-0.898438 -1.17188,-0.527344 -1.95313,-1.699219 -0.76172,-1.191406 -0.76172,-3.183593 0,-1.972657 0.82032,-3.359375 0.82031,-1.386719 2.38281,-2.109375 1.5625,-0.742188 3.76953,-0.742188 1.85547,0 3.28125,0.527344 1.44531,0.507812 2.40234,1.523437 0.95704,0.996094 1.42579,2.460938 v 0 l -3.78907,1.796875 v 0 q -0.48828,-1.113281 -1.34765,-1.699219 -0.83985,-0.585937 -1.99219,-0.585937 -1.34766,0 -2.07031,0.546875 -0.70313,0.546875 -0.70313,1.582031 0,0.722656 0.46875,1.152344 0.46875,0.429687 1.19141,0.644531 0.72265,0.195312 2.01172,0.449219 0.0586,0.01953 0.11718,0.03906 0.0586,0 0.11719,0 0.0391,0.01953 0.0977,0.03906 0.0586,0 0.0977,0 1.89454,0.371093 3.14454,0.859375 1.25,0.488281 2.10937,1.757812 0.87891,1.25 0.87891,3.457031 0,1.992188 -0.87891,3.417969 -0.87891,1.42578 -2.55859,2.16797 -1.67969,0.74218 -4.02344,0.74218 z" />
      <path
         inkscape:connector-curvature="0"
         id="path1439"
         d="m 260.46875,102.42773 q -2.46094,0 -4.17969,-0.89843 -1.69922,-0.91797 -2.61719,-2.656253 -0.89843,-1.738281 -0.89843,-4.238281 v -4.941407 q 0,-2.578125 0.8789,-4.394531 0.87891,-1.835937 2.53907,-2.792969 1.66015,-0.957031 4.02343,-0.957031 2.28516,0 3.88672,1.015625 1.6211,1.015625 2.46094,2.988281 0.85937,1.972657 0.85937,4.707032 v 3.476562 h -11.44531 v -3.378906 h 7.22656 l 0.0195,-1.269531 q -0.0195,-1.640625 -0.83985,-2.597657 -0.80078,-0.957031 -2.16797,-0.957031 -1.54297,0 -2.38281,1.054688 -0.83984,1.035156 -0.83984,2.890625 v 5.273437 q 0,1.738281 0.89843,2.675781 0.89844,0.9375 2.51954,0.9375 1.09375,0 1.8164,-0.527343 0.74219,-0.546875 1.09375,-1.582032 v 0 l 3.86719,1.367188 v 0 q -0.56641,2.402343 -2.28516,3.613283 -1.69922,1.1914 -4.43359,1.1914 z" />
    </g>
  </g>
</svg>
